<mxfile host="ac.draw.io" modified="2023-05-09T15:05:35.770Z" agent="Mozilla/5.0 (Windows NT 10.0; Win64; x64) AppleWebKit/537.36 (KHTML, like Gecko) Chrome/113.0.0.0 Safari/537.36" etag="HaNHehU7INL-3mwJO_3P" version="21.2.9" type="embed">
  <diagram id="C5RBs43oDa-KdzZeNtuy" name="Page-1">
    <mxGraphModel dx="2074" dy="1162" grid="1" gridSize="10" guides="1" tooltips="1" connect="1" arrows="1" fold="1" page="1" pageScale="1" pageWidth="827" pageHeight="1169" math="0" shadow="0">
      <root>
        <mxCell id="WIyWlLk6GJQsqaUBKTNV-0" />
        <mxCell id="WIyWlLk6GJQsqaUBKTNV-1" parent="WIyWlLk6GJQsqaUBKTNV-0" />
        <mxCell id="B5SSnuWDrrr7EJ08kXhe-0" value="Benutzer" style="shape=umlActor;verticalLabelPosition=bottom;verticalAlign=top;html=1;outlineConnect=0;" parent="WIyWlLk6GJQsqaUBKTNV-1" vertex="1">
          <mxGeometry x="130" y="420" width="30" height="60" as="geometry" />
        </mxCell>
        <mxCell id="B5SSnuWDrrr7EJ08kXhe-1" value="WS auf das&lt;br&gt;Förderband legen" style="ellipse;whiteSpace=wrap;html=1;" parent="WIyWlLk6GJQsqaUBKTNV-1" vertex="1">
          <mxGeometry x="280" y="300" width="120" height="60" as="geometry" />
        </mxCell>
        <mxCell id="B5SSnuWDrrr7EJ08kXhe-28" style="edgeStyle=orthogonalEdgeStyle;rounded=0;orthogonalLoop=1;jettySize=auto;html=1;exitX=1;exitY=0.5;exitDx=0;exitDy=0;entryX=0;entryY=0.5;entryDx=0;entryDy=0;endArrow=none;endFill=0;" parent="WIyWlLk6GJQsqaUBKTNV-1" source="B5SSnuWDrrr7EJ08kXhe-2" target="B5SSnuWDrrr7EJ08kXhe-27" edge="1">
          <mxGeometry relative="1" as="geometry" />
        </mxCell>
        <mxCell id="B5SSnuWDrrr7EJ08kXhe-2" value="Sortiertes WS&lt;br&gt;entnehmen" style="ellipse;whiteSpace=wrap;html=1;" parent="WIyWlLk6GJQsqaUBKTNV-1" vertex="1">
          <mxGeometry x="280" y="435" width="120" height="60" as="geometry" />
        </mxCell>
        <mxCell id="B5SSnuWDrrr7EJ08kXhe-3" value="" style="endArrow=none;html=1;rounded=0;entryX=0;entryY=0.5;entryDx=0;entryDy=0;" parent="WIyWlLk6GJQsqaUBKTNV-1" target="B5SSnuWDrrr7EJ08kXhe-1" edge="1">
          <mxGeometry width="50" height="50" relative="1" as="geometry">
            <mxPoint x="170" y="420" as="sourcePoint" />
            <mxPoint x="230" y="190" as="targetPoint" />
          </mxGeometry>
        </mxCell>
        <mxCell id="B5SSnuWDrrr7EJ08kXhe-4" value="" style="endArrow=none;html=1;rounded=0;entryX=0;entryY=0.5;entryDx=0;entryDy=0;" parent="WIyWlLk6GJQsqaUBKTNV-1" target="B5SSnuWDrrr7EJ08kXhe-2" edge="1">
          <mxGeometry width="50" height="50" relative="1" as="geometry">
            <mxPoint x="170" y="450" as="sourcePoint" />
            <mxPoint x="290" y="320" as="targetPoint" />
          </mxGeometry>
        </mxCell>
        <mxCell id="B5SSnuWDrrr7EJ08kXhe-25" style="edgeStyle=orthogonalEdgeStyle;rounded=0;orthogonalLoop=1;jettySize=auto;html=1;exitX=1;exitY=0.5;exitDx=0;exitDy=0;entryX=0;entryY=0.5;entryDx=0;entryDy=0;endArrow=none;endFill=0;" parent="WIyWlLk6GJQsqaUBKTNV-1" source="B5SSnuWDrrr7EJ08kXhe-5" target="B5SSnuWDrrr7EJ08kXhe-24" edge="1">
          <mxGeometry relative="1" as="geometry" />
        </mxCell>
        <mxCell id="B5SSnuWDrrr7EJ08kXhe-5" value="Höhe bestimmen" style="ellipse;whiteSpace=wrap;html=1;" parent="WIyWlLk6GJQsqaUBKTNV-1" vertex="1">
          <mxGeometry x="460" y="200" width="120" height="50" as="geometry" />
        </mxCell>
        <mxCell id="B5SSnuWDrrr7EJ08kXhe-7" value="Typ ausgeben" style="ellipse;whiteSpace=wrap;html=1;" parent="WIyWlLk6GJQsqaUBKTNV-1" vertex="1">
          <mxGeometry x="460" y="320" width="120" height="50" as="geometry" />
        </mxCell>
        <mxCell id="B5SSnuWDrrr7EJ08kXhe-9" value="WS aussortieren" style="ellipse;whiteSpace=wrap;html=1;" parent="WIyWlLk6GJQsqaUBKTNV-1" vertex="1">
          <mxGeometry x="460" y="380" width="120" height="50" as="geometry" />
        </mxCell>
        <mxCell id="B5SSnuWDrrr7EJ08kXhe-10" value="Betriebsmodus&lt;br&gt;wechseln" style="ellipse;whiteSpace=wrap;html=1;" parent="WIyWlLk6GJQsqaUBKTNV-1" vertex="1">
          <mxGeometry x="280" y="525" width="120" height="60" as="geometry" />
        </mxCell>
        <mxCell id="B5SSnuWDrrr7EJ08kXhe-11" value="" style="endArrow=none;html=1;rounded=0;entryX=0;entryY=0.5;entryDx=0;entryDy=0;" parent="WIyWlLk6GJQsqaUBKTNV-1" target="B5SSnuWDrrr7EJ08kXhe-10" edge="1">
          <mxGeometry width="50" height="50" relative="1" as="geometry">
            <mxPoint x="170" y="470" as="sourcePoint" />
            <mxPoint x="290" y="450" as="targetPoint" />
          </mxGeometry>
        </mxCell>
        <mxCell id="B5SSnuWDrrr7EJ08kXhe-13" value="" style="endArrow=none;html=1;rounded=0;entryX=1;entryY=0.5;entryDx=0;entryDy=0;exitX=0;exitY=0.5;exitDx=0;exitDy=0;" parent="WIyWlLk6GJQsqaUBKTNV-1" source="B5SSnuWDrrr7EJ08kXhe-7" target="B5SSnuWDrrr7EJ08kXhe-1" edge="1">
          <mxGeometry width="50" height="50" relative="1" as="geometry">
            <mxPoint x="180" y="380" as="sourcePoint" />
            <mxPoint x="290" y="320" as="targetPoint" />
          </mxGeometry>
        </mxCell>
        <mxCell id="B5SSnuWDrrr7EJ08kXhe-14" value="UseCase Sortieranlage" style="shape=umlFrame;whiteSpace=wrap;html=1;pointerEvents=0;width=160;height=30;" parent="WIyWlLk6GJQsqaUBKTNV-1" vertex="1">
          <mxGeometry x="240" y="120" width="400" height="650" as="geometry" />
        </mxCell>
        <mxCell id="B5SSnuWDrrr7EJ08kXhe-15" value="«actor»&lt;br&gt;&lt;b&gt;Weiche&lt;/b&gt;" style="html=1;whiteSpace=wrap;" parent="WIyWlLk6GJQsqaUBKTNV-1" vertex="1">
          <mxGeometry x="680" y="380" width="110" height="50" as="geometry" />
        </mxCell>
        <mxCell id="B5SSnuWDrrr7EJ08kXhe-16" value="«actor»&lt;br&gt;&lt;b&gt;Konsole&lt;/b&gt;" style="html=1;whiteSpace=wrap;" parent="WIyWlLk6GJQsqaUBKTNV-1" vertex="1">
          <mxGeometry x="680" y="320" width="110" height="50" as="geometry" />
        </mxCell>
        <mxCell id="B5SSnuWDrrr7EJ08kXhe-17" value="" style="endArrow=none;html=1;rounded=0;entryX=0;entryY=0.5;entryDx=0;entryDy=0;exitX=1;exitY=0;exitDx=0;exitDy=0;" parent="WIyWlLk6GJQsqaUBKTNV-1" source="B5SSnuWDrrr7EJ08kXhe-1" target="B5SSnuWDrrr7EJ08kXhe-20" edge="1">
          <mxGeometry width="50" height="50" relative="1" as="geometry">
            <mxPoint x="650" y="360" as="sourcePoint" />
            <mxPoint x="570" y="320" as="targetPoint" />
          </mxGeometry>
        </mxCell>
        <mxCell id="B5SSnuWDrrr7EJ08kXhe-18" value="" style="endArrow=none;html=1;rounded=0;entryX=1;entryY=0.5;entryDx=0;entryDy=0;exitX=0;exitY=0.5;exitDx=0;exitDy=0;" parent="WIyWlLk6GJQsqaUBKTNV-1" source="B5SSnuWDrrr7EJ08kXhe-16" target="B5SSnuWDrrr7EJ08kXhe-7" edge="1">
          <mxGeometry width="50" height="50" relative="1" as="geometry">
            <mxPoint x="770" y="320" as="sourcePoint" />
            <mxPoint x="570" y="320" as="targetPoint" />
          </mxGeometry>
        </mxCell>
        <mxCell id="B5SSnuWDrrr7EJ08kXhe-19" value="" style="endArrow=none;html=1;rounded=0;entryX=1;entryY=0.5;entryDx=0;entryDy=0;exitX=0;exitY=0.5;exitDx=0;exitDy=0;" parent="WIyWlLk6GJQsqaUBKTNV-1" source="B5SSnuWDrrr7EJ08kXhe-15" target="B5SSnuWDrrr7EJ08kXhe-9" edge="1">
          <mxGeometry width="50" height="50" relative="1" as="geometry">
            <mxPoint x="770" y="320" as="sourcePoint" />
            <mxPoint x="662" y="382" as="targetPoint" />
          </mxGeometry>
        </mxCell>
        <mxCell id="B5SSnuWDrrr7EJ08kXhe-26" style="edgeStyle=orthogonalEdgeStyle;rounded=0;orthogonalLoop=1;jettySize=auto;html=1;exitX=1;exitY=0.5;exitDx=0;exitDy=0;entryX=0;entryY=0.5;entryDx=0;entryDy=0;endArrow=none;endFill=0;" parent="WIyWlLk6GJQsqaUBKTNV-1" source="B5SSnuWDrrr7EJ08kXhe-20" target="B5SSnuWDrrr7EJ08kXhe-23" edge="1">
          <mxGeometry relative="1" as="geometry" />
        </mxCell>
        <mxCell id="B5SSnuWDrrr7EJ08kXhe-20" value="Metall erkennen" style="ellipse;whiteSpace=wrap;html=1;" parent="WIyWlLk6GJQsqaUBKTNV-1" vertex="1">
          <mxGeometry x="460" y="260" width="120" height="50" as="geometry" />
        </mxCell>
        <mxCell id="B5SSnuWDrrr7EJ08kXhe-21" value="" style="endArrow=none;html=1;rounded=0;entryX=0;entryY=0.5;entryDx=0;entryDy=0;" parent="WIyWlLk6GJQsqaUBKTNV-1" source="B5SSnuWDrrr7EJ08kXhe-1" target="B5SSnuWDrrr7EJ08kXhe-5" edge="1">
          <mxGeometry width="50" height="50" relative="1" as="geometry">
            <mxPoint x="590" y="260" as="sourcePoint" />
            <mxPoint x="620" y="320" as="targetPoint" />
          </mxGeometry>
        </mxCell>
        <mxCell id="B5SSnuWDrrr7EJ08kXhe-22" value="" style="endArrow=none;html=1;rounded=0;entryX=1;entryY=1;entryDx=0;entryDy=0;exitX=0;exitY=0.5;exitDx=0;exitDy=0;" parent="WIyWlLk6GJQsqaUBKTNV-1" source="B5SSnuWDrrr7EJ08kXhe-9" target="B5SSnuWDrrr7EJ08kXhe-1" edge="1">
          <mxGeometry width="50" height="50" relative="1" as="geometry">
            <mxPoint x="470" y="355" as="sourcePoint" />
            <mxPoint x="392" y="348" as="targetPoint" />
          </mxGeometry>
        </mxCell>
        <mxCell id="B5SSnuWDrrr7EJ08kXhe-23" value="«actor»&lt;br&gt;&lt;b&gt;Metallsensor&lt;/b&gt;" style="html=1;whiteSpace=wrap;" parent="WIyWlLk6GJQsqaUBKTNV-1" vertex="1">
          <mxGeometry x="680" y="260" width="110" height="50" as="geometry" />
        </mxCell>
        <mxCell id="B5SSnuWDrrr7EJ08kXhe-24" value="«actor»&lt;br&gt;&lt;b&gt;Höhensensor&lt;/b&gt;" style="html=1;whiteSpace=wrap;" parent="WIyWlLk6GJQsqaUBKTNV-1" vertex="1">
          <mxGeometry x="680" y="200" width="110" height="50" as="geometry" />
        </mxCell>
        <mxCell id="B5SSnuWDrrr7EJ08kXhe-27" value="«actor»&lt;br&gt;&lt;b&gt;Lichtschranke&lt;/b&gt;" style="html=1;whiteSpace=wrap;" parent="WIyWlLk6GJQsqaUBKTNV-1" vertex="1">
          <mxGeometry x="680" y="440" width="110" height="50" as="geometry" />
        </mxCell>
        <mxCell id="B5SSnuWDrrr7EJ08kXhe-29" value="«actor»&lt;br&gt;&lt;b&gt;Ampel&lt;/b&gt;" style="html=1;whiteSpace=wrap;" parent="WIyWlLk6GJQsqaUBKTNV-1" vertex="1">
          <mxGeometry x="680" y="559.5" width="110" height="50" as="geometry" />
        </mxCell>
        <mxCell id="B5SSnuWDrrr7EJ08kXhe-30" value="«actor»&lt;br&gt;&lt;b&gt;Taster&lt;/b&gt;" style="html=1;whiteSpace=wrap;" parent="WIyWlLk6GJQsqaUBKTNV-1" vertex="1">
          <mxGeometry x="680" y="500" width="110" height="50" as="geometry" />
        </mxCell>
        <mxCell id="B5SSnuWDrrr7EJ08kXhe-32" value="" style="endArrow=none;html=1;rounded=0;exitX=1;exitY=0.5;exitDx=0;exitDy=0;entryX=0;entryY=0.5;entryDx=0;entryDy=0;" parent="WIyWlLk6GJQsqaUBKTNV-1" source="B5SSnuWDrrr7EJ08kXhe-10" target="B5SSnuWDrrr7EJ08kXhe-29" edge="1">
          <mxGeometry width="50" height="50" relative="1" as="geometry">
            <mxPoint x="480" y="550" as="sourcePoint" />
            <mxPoint x="530" y="500" as="targetPoint" />
          </mxGeometry>
        </mxCell>
        <mxCell id="B5SSnuWDrrr7EJ08kXhe-33" value="" style="endArrow=none;html=1;rounded=0;exitX=1;exitY=0.5;exitDx=0;exitDy=0;entryX=0;entryY=0.5;entryDx=0;entryDy=0;" parent="WIyWlLk6GJQsqaUBKTNV-1" source="B5SSnuWDrrr7EJ08kXhe-10" target="B5SSnuWDrrr7EJ08kXhe-30" edge="1">
          <mxGeometry width="50" height="50" relative="1" as="geometry">
            <mxPoint x="410" y="565" as="sourcePoint" />
            <mxPoint x="690" y="535" as="targetPoint" />
          </mxGeometry>
        </mxCell>
        <mxCell id="RSRTdX_v_mpIVlPoJ_uV-2" style="edgeStyle=orthogonalEdgeStyle;rounded=0;orthogonalLoop=1;jettySize=auto;html=1;exitX=1;exitY=0.5;exitDx=0;exitDy=0;entryX=0;entryY=0.5;entryDx=0;entryDy=0;endArrow=none;endFill=0;" parent="WIyWlLk6GJQsqaUBKTNV-1" source="RSRTdX_v_mpIVlPoJ_uV-0" target="RSRTdX_v_mpIVlPoJ_uV-1" edge="1">
          <mxGeometry relative="1" as="geometry" />
        </mxCell>
        <mxCell id="RSRTdX_v_mpIVlPoJ_uV-0" value="Werkstück bewegen" style="ellipse;whiteSpace=wrap;html=1;" parent="WIyWlLk6GJQsqaUBKTNV-1" vertex="1">
          <mxGeometry x="460" y="140" width="120" height="50" as="geometry" />
        </mxCell>
        <mxCell id="RSRTdX_v_mpIVlPoJ_uV-1" value="«actor»&lt;br&gt;&lt;b&gt;Förderband&lt;/b&gt;" style="html=1;whiteSpace=wrap;" parent="WIyWlLk6GJQsqaUBKTNV-1" vertex="1">
          <mxGeometry x="680" y="140" width="110" height="50" as="geometry" />
        </mxCell>
        <mxCell id="RSRTdX_v_mpIVlPoJ_uV-3" value="" style="endArrow=none;html=1;rounded=0;entryX=0;entryY=0.5;entryDx=0;entryDy=0;exitX=0.5;exitY=0;exitDx=0;exitDy=0;" parent="WIyWlLk6GJQsqaUBKTNV-1" source="B5SSnuWDrrr7EJ08kXhe-1" target="RSRTdX_v_mpIVlPoJ_uV-0" edge="1">
          <mxGeometry width="50" height="50" relative="1" as="geometry">
            <mxPoint x="350" y="310" as="sourcePoint" />
            <mxPoint x="470" y="235" as="targetPoint" />
          </mxGeometry>
        </mxCell>
        <mxCell id="RSRTdX_v_mpIVlPoJ_uV-5" value="" style="endArrow=none;html=1;rounded=0;entryX=0;entryY=0.75;entryDx=0;entryDy=0;" parent="WIyWlLk6GJQsqaUBKTNV-1" source="B5SSnuWDrrr7EJ08kXhe-5" target="RSRTdX_v_mpIVlPoJ_uV-1" edge="1">
          <mxGeometry width="50" height="50" relative="1" as="geometry">
            <mxPoint x="350" y="310" as="sourcePoint" />
            <mxPoint x="470" y="175" as="targetPoint" />
          </mxGeometry>
        </mxCell>
        <mxCell id="RSRTdX_v_mpIVlPoJ_uV-6" value="Admin" style="shape=umlActor;verticalLabelPosition=bottom;verticalAlign=top;html=1;outlineConnect=0;" parent="WIyWlLk6GJQsqaUBKTNV-1" vertex="1">
          <mxGeometry x="130" y="694" width="30" height="60" as="geometry" />
        </mxCell>
        <mxCell id="RSRTdX_v_mpIVlPoJ_uV-7" value="System&lt;br&gt;konfigurieren" style="ellipse;whiteSpace=wrap;html=1;" parent="WIyWlLk6GJQsqaUBKTNV-1" vertex="1">
          <mxGeometry x="280" y="694" width="120" height="60" as="geometry" />
        </mxCell>
        <mxCell id="RSRTdX_v_mpIVlPoJ_uV-8" value="«actor»&lt;br&gt;&lt;b&gt;Dateisystem&lt;/b&gt;" style="html=1;whiteSpace=wrap;" parent="WIyWlLk6GJQsqaUBKTNV-1" vertex="1">
          <mxGeometry x="680" y="699" width="110" height="50" as="geometry" />
        </mxCell>
        <mxCell id="RSRTdX_v_mpIVlPoJ_uV-9" style="edgeStyle=orthogonalEdgeStyle;rounded=0;orthogonalLoop=1;jettySize=auto;html=1;exitX=1;exitY=0.5;exitDx=0;exitDy=0;entryX=0;entryY=0.5;entryDx=0;entryDy=0;endArrow=none;endFill=0;" parent="WIyWlLk6GJQsqaUBKTNV-1" source="RSRTdX_v_mpIVlPoJ_uV-7" target="RSRTdX_v_mpIVlPoJ_uV-8" edge="1">
          <mxGeometry relative="1" as="geometry">
            <mxPoint x="410" y="509" as="sourcePoint" />
            <mxPoint x="690" y="509" as="targetPoint" />
          </mxGeometry>
        </mxCell>
        <mxCell id="RSRTdX_v_mpIVlPoJ_uV-10" value="" style="endArrow=none;html=1;rounded=0;" parent="WIyWlLk6GJQsqaUBKTNV-1" source="RSRTdX_v_mpIVlPoJ_uV-6" target="RSRTdX_v_mpIVlPoJ_uV-7" edge="1">
          <mxGeometry width="50" height="50" relative="1" as="geometry">
            <mxPoint x="180" y="434" as="sourcePoint" />
            <mxPoint x="290" y="509" as="targetPoint" />
          </mxGeometry>
        </mxCell>
        <mxCell id="RSRTdX_v_mpIVlPoJ_uV-11" value="" style="endArrow=none;html=1;rounded=0;entryX=0;entryY=0.25;entryDx=0;entryDy=0;" parent="WIyWlLk6GJQsqaUBKTNV-1" source="B5SSnuWDrrr7EJ08kXhe-9" target="B5SSnuWDrrr7EJ08kXhe-27" edge="1">
          <mxGeometry width="50" height="50" relative="1" as="geometry">
            <mxPoint x="590" y="235" as="sourcePoint" />
            <mxPoint x="690" y="188" as="targetPoint" />
          </mxGeometry>
        </mxCell>
        <mxCell id="RSRTdX_v_mpIVlPoJ_uV-16" style="edgeStyle=orthogonalEdgeStyle;rounded=0;orthogonalLoop=1;jettySize=auto;html=1;exitX=1;exitY=0.5;exitDx=0;exitDy=0;entryX=0;entryY=0.5;entryDx=0;entryDy=0;endArrow=none;endFill=0;" parent="WIyWlLk6GJQsqaUBKTNV-1" source="RSRTdX_v_mpIVlPoJ_uV-12" target="RSRTdX_v_mpIVlPoJ_uV-13" edge="1">
          <mxGeometry relative="1" as="geometry" />
        </mxCell>
        <mxCell id="RSRTdX_v_mpIVlPoJ_uV-12" value="Sicherheitsstopp&lt;br&gt;auslösen" style="ellipse;whiteSpace=wrap;html=1;" parent="WIyWlLk6GJQsqaUBKTNV-1" vertex="1">
          <mxGeometry x="280" y="615" width="120" height="60" as="geometry" />
        </mxCell>
        <mxCell id="RSRTdX_v_mpIVlPoJ_uV-13" value="«actor»&lt;br&gt;&lt;b&gt;EStopp&lt;/b&gt;" style="html=1;whiteSpace=wrap;" parent="WIyWlLk6GJQsqaUBKTNV-1" vertex="1">
          <mxGeometry x="680" y="620" width="110" height="50" as="geometry" />
        </mxCell>
        <mxCell id="RSRTdX_v_mpIVlPoJ_uV-14" value="" style="endArrow=none;html=1;rounded=0;" parent="WIyWlLk6GJQsqaUBKTNV-1" target="RSRTdX_v_mpIVlPoJ_uV-12" edge="1">
          <mxGeometry width="50" height="50" relative="1" as="geometry">
            <mxPoint x="170" y="510" as="sourcePoint" />
            <mxPoint x="290" y="565" as="targetPoint" />
          </mxGeometry>
        </mxCell>
        <mxCell id="RSRTdX_v_mpIVlPoJ_uV-18" value="" style="endArrow=none;html=1;rounded=0;entryX=0;entryY=0.75;entryDx=0;entryDy=0;" parent="WIyWlLk6GJQsqaUBKTNV-1" source="RSRTdX_v_mpIVlPoJ_uV-12" target="B5SSnuWDrrr7EJ08kXhe-29" edge="1">
          <mxGeometry width="50" height="50" relative="1" as="geometry">
            <mxPoint x="410" y="565" as="sourcePoint" />
            <mxPoint x="690" y="595" as="targetPoint" />
          </mxGeometry>
        </mxCell>
      </root>
    </mxGraphModel>
  </diagram>
</mxfile>
